<svg viewBox="0 0 24 24" xmlns="http://www.w3.org/2000/svg">
  <path
    fill="#2c851d"
    d="M3 5.5A2.5 2.5 0 0 1 5.5 3h13A2.5 2.5 0 0 1 21 5.5v13A2.5 2.5 0 0 1 18.5 21h-13A2.5 2.5 0 0 1 3 18.5zm2 0a.5.5 0 0 0-.5.5v12a.5.5 0 0 0 .5.5h13a.5.5 0 0 0 .5-.5v-12a.5.5 0 0 0-.5-.5zm2.2 2.2a1 1 0 0 1 1.4 0l2.6 2.6a1 1 0 0 1 0 1.4l-2.6 2.6a1 1 0 1 1-1.4-1.4L9.09 11 7.2 9.1a1 1 0 0 1 0-1.4M12 14a1 1 0 0 1 1-1h3a1 1 0 1 1 0 2h-3a1 1 0 0 1-1-1"
  />
  <line x1="18" y1="2" x2="24" y2="8" stroke="#ebc310" stroke-width="2.5" stroke-linecap="round" />
  <line x1="24" y1="2" x2="18" y2="8" stroke="#ebc310" stroke-width="2.5" stroke-linecap="round" />
</svg>
